 <svg
            version="1.1"
            id="e9fbb2fa-8bad-482f-994f-55e7ed2ed05b"
            xmlns="http://www.w3.org/2000/svg"
            xmlns:xlink="http://www.w3.org/1999/xlink"
            x="0px"
            y="0px"
            viewBox="0 0 112 68.6"
            style="enable-background: new 0 0 112 68.6"
            xml:space="preserve"
          >
            <path
              class="hand"
              d="M79.7,34.7C79.7,34.7,79.7,34.6,79.7,34.7c-1.4-2.7-4.6-3.7-7.2-2.4c-0.4,0.2-0.8,0.4-1.1,0.7l-10,6.4
            c-1-1.5-2.6-2.5-4.4-2.6l-10-0.2c-2.5,0-5.7,0.1-8.3,1.6c-1.2,0.8-2.3,1.8-3.1,3L35,42c-0.9,1.2-1.9,2.4-2.8,3.5
            c-0.4,0.5-0.3,1.2,0.2,1.6c0.2,0.2,0.5,0.3,0.7,0.3c0.4,0,0.7-0.2,0.9-0.4c0.9-1.2,1.9-2.4,2.8-3.5l0.6-0.7c0.6-0.9,1.5-1.8,2.4-2.4
            c2.2-1.3,5-1.4,7.2-1.3l10,0.2c1.5,0,2.7,1.1,2.8,2.6c-0.1,0.5-0.7,2.6-2.9,2.5l-11.6-0.1c-0.6,0.1-1.1,0.6-1.1,1.3
            c0.1,0.6,0.5,1,1.1,1.1l11.6,0.1c3.6,0.2,5-2.9,5.3-4.6c0-0.1,0-0.1,0-0.2l10.6-7c0.8-0.7,1.8-1,2.9-0.8c0.8,0.3,1.5,0.8,1.9,1.5
            c0.4,1.2,0,2.4-1,3.2l-13.9,8.7c-1,0.7-2.1,1.3-3.4,1.6c-1.5,0.2-3,0.2-4.5,0c-0.6,0-1.3-0.1-1.9-0.1h-3.5L46.1,49
            c-1.7-0.2-3.3,0.3-4.6,1.4c-0.9,0.8-1.7,1.7-2.5,2.5c-0.3,0.4-0.8,0.9-1.8,2c-0.5,0.5-0.5,1.2,0,1.7c0.2,0.2,0.5,0.3,0.8,0.3
            s0.6-0.1,0.8-0.4c1-1.1,1.5-1.6,1.8-2c0.7-0.9,1.5-1.7,2.4-2.5c0.7-0.7,1.6-0.8,2.9-0.8l3.3,0.1l3.5,0.1c0.6,0,1.2,0.1,1.8,0.1
            c1.7,0.2,3.4,0.2,5.1-0.1c1.5-0.3,3-1,4.2-1.9l14-8.8C79.8,39.4,80.5,36.9,79.7,34.7z"
            />
            <path
              class="hand"
              d="M58.6,33.7c6,0,10.9-4.9,10.9-11c0-6-4.9-10.9-11-10.9c-6,0-10.9,4.9-10.9,10.9C47.6,28.8,52.5,33.7,58.6,33.7z
             M50,22.7c0-4.7,3.8-8.6,8.6-8.6c4.7,0,8.6,3.8,8.6,8.6s-3.8,8.6-8.6,8.6S50,27.5,50,22.7L50,22.7z"
            />
            <g>
              <path
                class="hand"
                d="M58.1,16.2c0.3-0.2,0.6-0.3,1-0.1c0.2,0.1,0.4,0.3,0.4,0.6c0,0.2,0.1,0.4,0.3,0.4c0.4,0.1,0.8,0.1,1.1,0.2
              c0.6,0.1,1.2,0.4,1.7,0.7c0.4,0.3,0.5,0.7,0.3,1.1c-0.2,0.3-0.5,0.4-0.9,0.3c-0.4-0.1-1.2-0.3-2.2-0.7c-0.2-0.1-0.3,0-0.3,0.3v2.4
              c0,0.2,0.1,0.4,0.3,0.5l1.6,0.5c0.4,0.2,0.8,0.4,1.1,0.6c0.5,0.4,0.8,0.7,1,1.2c0.3,0.6,0.3,1.3,0.1,2c-0.2,0.6-0.6,1.2-1.2,1.5
              c-0.8,0.4-1.6,0.6-2.6,0.6c-0.2,0-0.3,0.1-0.4,0.4c0,0.2-0.1,0.3-0.2,0.4c-0.3,0.2-0.6,0.2-0.9,0.1c-0.3-0.1-0.4-0.3-0.4-0.6
              c0-0.2-0.1-0.4-0.3-0.4c-0.7-0.1-1.4-0.4-2.2-0.8c-0.7-0.4-1.3-0.9-1.6-1.4c-0.1-0.2-0.2-0.4-0.1-0.6c0.1-0.3,0.3-0.5,0.7-0.6
              c0.1,0,0.3,0.1,0.6,0.2c0.4,0.2,0.8,0.5,1.1,0.7c0.6,0.4,1.1,0.6,1.5,0.8c0.2,0.1,0.4,0,0.4-0.2v-2.9c0-0.2-0.1-0.4-0.3-0.5
              c-0.8-0.3-1.6-0.7-2.2-1.1c-0.8-0.5-1.2-1.1-1.3-1.7c-0.2-1.1,0.3-2,1.4-2.6c0.7-0.3,1.4-0.5,2.2-0.6c0.2,0,0.3-0.1,0.3-0.4
              C58,16.5,58,16.4,58.1,16.2z M57.5,18.5l-0.1,0c-0.4,0.1-0.8,0.2-1.1,0.4c-0.2,0.2-0.3,0.3-0.4,0.5c-0.1,0.4,0.1,0.8,0.6,1.1
              c0.4,0.2,0.8,0.4,1.2,0.6c0.2,0.1,0.3,0,0.3-0.2v-2.1C57.9,18.6,57.8,18.5,57.5,18.5z M59.8,23.7c-0.2-0.1-0.4,0-0.4,0.2v2.6
              c0,0.2,0.1,0.3,0.3,0.3c0.6,0,1.2-0.2,1.6-0.5c0.4-0.3,0.5-0.6,0.5-1.1c-0.1-0.4-0.3-0.7-0.9-1C60.7,24,60.2,23.8,59.8,23.7z"
              />
            </g>
          </svg>