<?xml version="1.0" encoding="utf-8"?>
<!-- Generator: Adobe Illustrator 23.0.2, SVG Export Plug-In . SVG Version: 6.00 Build 0)  -->
<svg version="1.1" id="a21480cd-082e-4160-999b-aa89c521ac38"
	 xmlns="http://www.w3.org/2000/svg" xmlns:xlink="http://www.w3.org/1999/xlink" x="0px" y="0px" viewBox="0 0 112 68.6"
	 style="enable-background:new 0 0 112 68.6;" xml:space="preserve">
<g>
	<g>
		<path class="restaurant" d="M78.6,25.6c-1.2-2.3-2.3-4.7-3.5-7.1c-0.1-0.3-0.2-0.6-0.2-0.8c0-1.1,0-2.3,0-3.4c0-1.3-0.9-2.4-2.2-2.8
			c-0.1,0-0.2,0-0.2-0.1h-33c-0.2,0.2-0.6,0.2-0.8,0.4c-0.9,0.5-1.4,1.3-1.5,2.3c-0.1,1.2,0,2.4,0,3.6c0,0.2,0,0.4-0.1,0.6
			c-1.3,2.6-2.6,5.1-3.9,7.7v8.6c0.3,0.5,1,0.7,1.5,0.6c0.7,0,1.4,0,2.1,0c0.3,0,0.4,0.1,0.3,0.3c0,0.3,0,0.2,0,0.4v19.8
			c0,0.3,0,0.5,0.1,0.8c0.1,0.3,0.4,0.6,0.8,0.6c0.2,0,0.4,0,0.5,0h35c1.1,0,1.4-0.3,1.4-1.4c0-6.6,0-13.3,0-19.9
			c0-0.4,0.1-0.6,0.6-0.6c0.8,0,1.5,0,2.3,0c0.5,0.1,1.1-0.3,1.2-0.8c0-0.1,0-0.2,0-0.4c0-2.5,0-5.1,0-7.6
			C78.9,26.1,78.8,25.8,78.6,25.6z M73.4,19.7c0.9,1.8,1.8,3.5,2.7,5.3c0.1,0.3,0.1,0.4-0.2,0.4c-1.7,0-3.3,0-5,0
			c-0.2,0-0.4-0.1-0.5-0.3c-0.9-1.8-1.8-3.5-2.7-5.3c-0.1-0.3-0.1-0.4,0.2-0.4c0.8,0,1.7,0,2.5,0h2.5C73.1,19.3,73.4,19.5,73.4,19.7
			z M49,32.9c0,0.3-0.1,0.4-0.3,0.4h-5.3c-0.3,0-0.4-0.1-0.4-0.4c0-1.7,0-3.5,0-5.2c0-0.3,0.1-0.4,0.4-0.4h5.3
			c0.3,0,0.3,0.1,0.3,0.4c0,0.9,0,1.8,0,2.7C49.1,31.2,49,32.1,49,32.9z M44.1,25.3L44.1,25.3c-0.4,0-0.4-0.1-0.3-0.3
			c0.9-1.8,1.8-3.6,2.7-5.4c0-0.2,0.2-0.3,0.4-0.3h5.5l-0.1,0.3L49.6,25c-0.1,0.2-0.3,0.3-0.5,0.3C47.5,25.3,45.8,25.3,44.1,25.3z
			 M54.5,19.7c0.1-0.2,0.3-0.4,0.5-0.3c0.7,0,1.3,0,2,0c0.2,0,0.4,0.1,0.5,0.3c0.9,1.8,1.8,3.5,2.6,5.3c0.2,0.3,0.1,0.4-0.2,0.4
			h-7.8c-0.4,0-0.5,0-0.3-0.4C52.7,23.2,53.6,21.5,54.5,19.7z M51,27.8c0-0.4,0.1-0.4,0.5-0.4c3,0,6,0,9.1,0c0.4,0,0.4,0.1,0.4,0.5
			c0,1.7,0,3.4,0,5.1c0,0.4-0.1,0.4-0.5,0.4h-9c-0.3,0-0.5-0.1-0.5-0.5C51,31.1,51,29.5,51,27.8z M59.8,19.7L59.8,19.7
			c-0.2-0.3-0.1-0.3,0.2-0.3c1.7,0,3.3,0,5,0c0.2,0,0.4,0.1,0.4,0.3c0.9,1.8,1.8,3.6,2.7,5.4c0.1,0.3,0.1,0.4-0.2,0.4
			c-0.8,0-1.7,0-2.5,0h-2.5c-0.2,0-0.4-0.1-0.5-0.3C61.6,23.3,60.7,21.5,59.8,19.7z M63,27.7c0-0.3,0.1-0.4,0.4-0.4
			c1.7,0,3.5,0,5.2,0c0.3,0,0.4,0.1,0.4,0.4c0,1.7,0,3.5,0,5.2c0,0.3-0.1,0.4-0.4,0.4c-0.9,0-1.8,0-2.6,0s-1.7,0-2.6,0
			c-0.3,0-0.4-0.1-0.4-0.4C63,31.2,63,29.4,63,27.7L63,27.7z M39.1,14.6C39,14,39.4,13.5,40,13.4c0.1,0,0.2,0,0.3,0h31.2
			c0.2,0,0.4,0,0.5,0c0.5,0,0.9,0.5,0.9,1c0,0,0,0,0,0c0,0.9,0,1.8,0,2.7c0,0.3-0.1,0.3-0.4,0.3H39.6c-0.4,0-0.5-0.1-0.5-0.5
			C39.1,16.1,39.1,15.4,39.1,14.6z M35.9,25c0.9-1.8,1.8-3.6,2.7-5.4c0.1-0.2,0.2-0.3,0.4-0.3h5.1c0.3,0,0.3,0.1,0.2,0.3L41.6,25
			c-0.1,0.2-0.3,0.3-0.5,0.3c-0.8,0-1.6,0-2.5,0s-1.7,0-2.5,0C35.8,25.3,35.8,25.3,35.9,25z M38.1,33.3c-0.8,0-1.7,0-2.5,0
			c-0.3,0-0.4-0.1-0.4-0.4c0-1.7,0-3.5,0-5.2c0-0.3,0.1-0.4,0.4-0.4h5.2c0.3,0,0.4,0.1,0.4,0.4c0,1.7,0,3.5,0,5.2
			c0,0.3-0.1,0.4-0.4,0.4C39.8,33.3,39,33.3,38.1,33.3z M72.3,54.7H39.8V36h32.5l0,7.2V54.7z M76.9,30.3c0,0.9,0,1.7,0,2.6
			c0,0.3-0.1,0.4-0.4,0.4h-5.3c-0.3,0-0.4-0.1-0.4-0.4c0-1.8,0-3.5,0-5.3c0-0.3,0.1-0.4,0.4-0.4h5.3c0.3,0,0.4,0.1,0.4,0.4
			C76.9,28.6,76.9,29.5,76.9,30.3z"/>
		<path class="restaurant" d="M61.7,38c-1.7-0.9-3.7-0.7-5.2,0.4c-0.3,0.3-0.7,0.3-0.9,0c-2.3-1.7-5.6-1.1-7.2,1.2c-1.5,2.1-1.2,5,0.7,6.8
			c2.2,2.3,4.5,4.5,6.7,6.7c0.2,0.2,0.3,0.3,0.6,0c2.2-2.3,4.5-4.5,6.8-6.7c1-1,1.6-2.3,1.6-3.7C64.7,40.7,63.5,38.8,61.7,38z
			 M61.1,44.5c-1.6,1.7-3.2,3.4-4.8,5.1c-0.2,0.2-0.3,0.2-0.6,0c-1.6-1.7-3.2-3.4-4.8-5.1c-0.9-0.9-1-2.4-0.1-3.3
			c0.8-0.8,2.1-0.9,2.9-0.2c0.1,0.1,0.1,0.1,0.2,0.2c0.6,0.6,1.2,1.2,1.8,1.9c0.2,0.2,0.3,0.2,0.6,0c0.6-0.7,1.3-1.4,2-2
			c0.8-0.8,2.1-0.7,2.9,0.1c0.3,0.3,0.5,0.7,0.5,1.1c0,0.2,0.1,0.4,0.1,0.5C61.8,43.4,61.5,44,61.1,44.5z"/>
	</g>
</g>
</svg>
